<?xml version="1.0" standalone="no"?>
<!DOCTYPE svg PUBLIC "-//W3C//DTD SVG 20010904//EN"
 "http://www.w3.org/TR/2001/REC-SVG-20010904/DTD/svg10.dtd">
<svg version="1.0" xmlns="http://www.w3.org/2000/svg"
 width="106.000000pt" height="97.000000pt" viewBox="0 0 106.000000 97.000000"
 preserveAspectRatio="xMidYMid meet">

<g transform="translate(0.000000,97.000000) scale(0.100000,-0.100000)"
fill="#000000" stroke="none">
<path d="M522 830 c-18 -15 -32 -35 -32 -45 0 -10 -3 -15 -7 -12 -10 11 -31
-25 -38 -66 -8 -42 -8 -42 -38 -22 -13 8 -36 12 -55 10 -18 -2 -31 -1 -28 3 8
13 -46 13 -62 0 -13 -10 -14 -10 -8 0 4 7 1 12 -9 12 -10 0 -13 -5 -9 -12 5
-7 2 -9 -8 -6 -12 5 -14 -3 -12 -42 3 -59 35 -134 73 -170 27 -26 27 -28 12
-49 -13 -17 -19 -19 -28 -10 -17 17 -48 -8 -32 -27 8 -10 18 -8 52 10 33 17
57 21 110 20 37 -1 70 -4 74 -8 3 -3 15 -6 25 -6 10 0 18 -4 18 -8 0 -15 -82
-90 -115 -106 -18 -9 -36 -22 -38 -29 -4 -8 -6 -8 -6 2 -1 11 -6 10 -21 -4
-20 -18 -21 -18 -14 1 7 17 6 18 -11 4 -10 -8 -16 -10 -12 -3 5 8 0 11 -13 10
-14 -1 -19 -6 -15 -17 3 -8 -4 -3 -16 13 -11 15 -25 25 -30 21 -5 -3 -9 -1 -9
4 0 6 -10 8 -22 5 -17 -3 -19 -2 -10 5 8 5 13 13 12 17 -1 4 8 18 20 32 16 19
19 28 10 37 -8 8 -18 2 -40 -24 -16 -19 -28 -43 -27 -53 2 -22 62 -61 78 -51
8 4 9 3 5 -4 -18 -29 133 -25 165 4 10 9 19 14 19 9 0 -4 7 -2 15 5 8 7 12 17
8 23 -3 5 -2 7 4 4 6 -4 19 1 29 9 17 14 17 15 1 10 -11 -3 -16 -2 -12 4 3 6
15 10 26 10 12 0 19 7 19 19 0 21 26 36 35 20 4 -5 2 -8 -3 -7 -13 4 -12 10
-12 -133 0 -89 3 -118 12 -113 7 5 9 2 5 -9 -4 -11 -2 -14 9 -10 12 4 14 27
12 123 -2 65 -7 116 -11 113 -5 -3 -6 -12 -2 -22 5 -13 4 -14 -7 -3 -10 10 -8
17 11 35 13 12 21 16 17 10 -4 -8 -1 -13 7 -13 7 0 24 -11 37 -25 17 -18 27
-22 36 -15 9 8 11 6 10 -6 0 -9 10 -23 24 -32 20 -14 23 -14 16 -2 -5 8 1 5
13 -8 26 -27 102 -30 157 -7 19 8 36 13 38 12 8 -4 46 36 46 48 0 7 -9 15 -20
18 -11 3 -20 11 -19 19 0 10 2 10 6 1 2 -7 9 -13 15 -13 6 0 3 9 -7 20 -10 11
-21 16 -24 11 -3 -5 -12 -3 -19 5 -11 12 -10 14 5 14 13 0 10 5 -12 20 -16 11
-38 17 -47 14 -10 -3 -24 0 -31 7 -18 18 1 59 28 59 15 0 17 3 7 9 -10 6 -8
10 8 14 17 4 21 11 17 26 -3 12 -2 19 3 16 12 -7 33 53 34 98 1 26 -4 42 -13
45 -8 3 -11 0 -7 -7 5 -7 1 -9 -8 -5 -9 3 -14 10 -11 14 10 16 -132 3 -156
-14 -37 -26 -52 -21 -44 14 8 37 -10 66 -30 50 -7 -6 -11 -20 -8 -31 5 -16 8
-17 21 -7 14 11 14 10 5 -6 -7 -12 -8 -29 -3 -41 9 -24 -15 -105 -43 -145 -9
-13 -17 -30 -17 -38 0 -7 -4 -10 -10 -7 -14 9 -13 -8 2 -23 7 -7 8 -12 2 -12
-6 0 -14 3 -18 8 -4 4 -17 7 -28 7 -12 0 -23 7 -25 15 -4 13 -3 13 6 0 8 -11
11 -11 11 -2 0 7 -7 15 -15 18 -8 3 -19 21 -25 40 -7 19 -15 32 -19 30 -4 -3
-6 30 -5 72 4 111 5 123 15 116 5 -3 13 6 19 20 5 14 14 26 19 26 10 0 27 39
23 53 -1 5 2 5 8 2 6 -4 9 -12 7 -18 -5 -16 59 -80 72 -72 19 11 12 23 -18 30
-16 3 -32 13 -35 21 -5 13 -3 13 16 -1 37 -25 40 -17 8 18 -36 41 -47 41 -88
7z m9 -23 c-10 -9 -11 -8 -5 6 3 10 9 15 12 12 3 -3 0 -11 -7 -18z m-64 -102
c0 -8 -4 -12 -9 -9 -5 3 -6 10 -3 15 9 13 12 11 12 -6z m308 -15 c3 -5 1 -10
-4 -10 -6 0 -11 5 -11 10 0 6 2 10 4 10 3 0 8 -4 11 -10z m-414 -19 c-10 -7
-6 -11 16 -15 35 -8 76 -43 68 -57 -4 -5 -2 -9 4 -9 6 0 8 -6 5 -14 -3 -8 0
-24 6 -37 10 -18 14 -19 22 -8 8 11 8 10 4 -4 -4 -11 2 -31 15 -48 11 -16 18
-33 15 -38 -10 -15 -130 14 -179 43 -26 15 -47 24 -47 19 0 -16 -24 18 -27 39
-2 12 -1 19 3 16 3 -3 7 -14 8 -24 2 -9 10 -18 19 -20 15 -2 14 2 -4 28 -12
17 -27 27 -35 24 -16 -6 -19 10 -4 19 6 3 10 16 10 28 0 18 -2 19 -10 7 -11
-17 -13 -6 -4 27 5 18 15 23 53 26 25 2 53 4 61 5 12 1 13 0 1 -7z m530 -26
c5 4 9 2 9 -3 0 -6 -8 -13 -17 -16 -12 -5 -14 -9 -5 -18 15 -15 15 -28 1 -28
-5 0 -7 5 -4 10 3 6 4 10 1 10 -6 0 -36 -55 -36 -65 0 -3 4 -4 9 0 5 3 12 1
16 -4 3 -6 -3 -8 -15 -6 -13 2 -20 -1 -20 -11 0 -8 -4 -13 -9 -10 -5 3 -15 -1
-22 -10 -22 -26 -66 -44 -127 -50 -49 -5 -60 -4 -65 10 -4 10 1 19 12 26 10 5
21 19 24 30 3 13 1 18 -6 14 -7 -3 0 4 15 17 15 13 29 36 31 51 6 51 49 74
152 80 32 2 41 -1 43 -15 2 -9 8 -15 13 -12z m-90 -178 c-10 -9 -11 -8 -5 6 3
10 9 15 12 12 3 -3 0 -11 -7 -18z m49 -67 c51 -26 84 -68 69 -86 -15 -18 -96
-41 -135 -39 -18 0 -43 9 -58 18 -14 10 -26 16 -26 13 0 -2 -20 16 -45 41 -25
24 -45 48 -45 52 0 12 118 30 163 25 22 -3 56 -13 77 -24z m-575 2 c-3 -3 -11
0 -18 7 -9 10 -8 11 6 5 10 -3 15 -9 12 -12z m615 -4 c0 -5 -9 -4 -20 2 -11 6
-20 12 -20 14 0 2 9 2 20 -1 11 -3 20 -9 20 -15z m-686 -41 c-3 -8 -12 -18
-20 -21 -11 -4 -10 0 3 18 20 26 27 28 17 3z m451 -35 c-3 -3 -11 0 -18 7 -9
10 -8 11 6 5 10 -3 15 -9 12 -12z m-245 -47 c-7 -8 -17 -15 -23 -15 -6 0 -2 7
9 15 25 19 30 19 14 0z m400 -21 c0 -2 -11 -3 -24 -2 -14 1 -23 5 -20 9 4 7
44 0 44 -7z"/>
</g>
</svg>
