<?xml version="1.0" standalone="no"?>
<!DOCTYPE svg PUBLIC "-//W3C//DTD SVG 20010904//EN"
 "http://www.w3.org/TR/2001/REC-SVG-20010904/DTD/svg10.dtd">
<svg version="1.0" xmlns="http://www.w3.org/2000/svg"
 width="117.000000pt" height="100.000000pt" viewBox="0 0 117.000000 100.000000"
 preserveAspectRatio="xMidYMid meet">

<g transform="translate(0.000000,100.000000) scale(0.100000,-0.100000)"
fill="#000000" stroke="none">
<path d="M528 833 c-53 -56 -78 -112 -78 -178 0 -63 14 -95 71 -168 l39 -49
-1 -101 -1 -102 -14 93 c-16 109 -43 170 -97 219 -58 52 -116 75 -185 71 l-57
-3 2 -57 c4 -133 108 -238 253 -255 47 -5 50 -8 50 -34 0 -28 -1 -29 -55 -29
-67 0 -76 -13 -48 -67 44 -84 186 -119 283 -69 50 25 92 79 88 111 -3 17 -11
20 -55 23 -51 3 -53 4 -53 31 0 27 4 29 48 36 106 15 186 72 228 160 31 64 33
150 5 158 -29 7 -115 -10 -159 -32 -107 -55 -152 -129 -160 -264 -3 -48 -9
-86 -14 -85 -5 2 -9 7 -9 11 1 4 1 47 1 96 0 88 0 89 39 137 21 27 46 64 56
83 25 49 23 126 -5 181 -29 58 -88 120 -115 120 -12 0 -37 -17 -57 -37z m98
-45 c63 -76 70 -164 18 -240 l-29 -42 -5 71 c-6 79 -12 92 -35 73 -11 -9 -15
-31 -15 -78 l0 -66 -32 43 c-37 51 -48 119 -26 171 19 43 65 100 83 100 7 0
26 -15 41 -32z m-278 -223 c73 -31 151 -130 152 -192 0 -20 -5 -23 -38 -23
-85 0 -191 83 -207 163 -4 18 -9 40 -11 50 -4 14 1 17 31 17 19 0 52 -7 73
-15z m582 -10 c0 -99 -113 -204 -219 -205 -48 0 -49 4 -17 82 34 80 123 147
199 148 33 0 37 -3 37 -25z"/>
</g>
</svg>
