<?xml version="1.0" standalone="no"?>
<!DOCTYPE svg PUBLIC "-//W3C//DTD SVG 20010904//EN"
 "http://www.w3.org/TR/2001/REC-SVG-20010904/DTD/svg10.dtd">
<svg version="1.0" xmlns="http://www.w3.org/2000/svg"
 width="90.000000pt" height="99.000000pt" viewBox="0 0 90.000000 99.000000"
 preserveAspectRatio="xMidYMid meet">

<g transform="translate(0.000000,99.000000) scale(0.100000,-0.100000)"
fill="#000000" stroke="none">
<path d="M662 790 l-123 -48 -111 44 c-61 24 -122 44 -135 44 -31 0 -205 -67
-215 -83 -4 -7 -8 -151 -8 -320 0 -249 3 -309 13 -313 8 -3 58 11 111 32 l98
36 120 -46 c65 -25 128 -46 138 -46 10 0 73 21 140 46 93 36 121 52 125 68 3
12 4 158 3 326 -3 262 -5 305 -18 307 -8 1 -70 -20 -138 -47z m-239 -56 l120
-46 106 41 c58 23 109 41 114 41 4 0 7 -123 7 -274 l0 -275 -105 -40 c-58 -23
-110 -41 -116 -41 -5 0 -60 20 -121 45 -62 25 -122 45 -135 45 -12 0 -52 -11
-89 -25 -36 -14 -70 -25 -75 -25 -5 0 -8 116 -7 271 l3 271 70 28 c39 15 79
28 89 29 10 1 73 -20 139 -45z"/>
<path d="M545 616 c-50 -23 -136 -64 -192 -91 -133 -62 -134 -74 -14 -105 l66
-16 25 -76 c14 -42 28 -80 32 -84 18 -17 51 43 166 306 50 114 38 124 -83 66z
m35 -49 c0 -2 -22 -52 -50 -112 -48 -106 -49 -108 -60 -79 -23 64 -27 69 -71
80 l-44 11 105 51 c99 48 120 56 120 49z"/>
</g>
</svg>
