<?xml version="1.0" standalone="no"?>
<!DOCTYPE svg PUBLIC "-//W3C//DTD SVG 20010904//EN"
 "http://www.w3.org/TR/2001/REC-SVG-20010904/DTD/svg10.dtd">
<svg version="1.0" xmlns="http://www.w3.org/2000/svg"
 width="106.000000pt" height="99.000000pt" viewBox="0 0 106.000000 99.000000"
 preserveAspectRatio="xMidYMid meet">

<g transform="translate(0.000000,99.000000) scale(0.100000,-0.100000)"
fill="#000000" stroke="none">
<path d="M185 849 l-35 -31 0 -295 0 -295 34 -34 34 -34 331 0 c368 0 375 1
405 64 22 47 24 537 2 591 -27 63 -37 65 -405 65 l-330 0 -36 -31z m717 -49
c16 -20 18 -44 18 -281 -1 -228 -3 -260 -18 -279 -17 -20 -24 -21 -346 -21
-233 0 -332 4 -342 12 -19 16 -21 561 -1 577 20 16 37 17 360 16 310 -1 310
-1 329 -24z"/>
<path d="M291 706 c-16 -19 -11 -46 12 -60 25 -16 52 4 52 40 0 24 -5 30 -26
32 -14 2 -31 -4 -38 -12z"/>
<path d="M447 704 c-4 -4 -7 -16 -7 -26 0 -17 10 -18 173 -16 164 3 172 4 172
23 0 19 -8 20 -166 23 -91 1 -168 -1 -172 -4z"/>
<path d="M296 544 c-20 -19 -20 -38 -2 -54 23 -19 61 -8 64 18 7 44 -32 67
-62 36z"/>
<path d="M442 518 c3 -23 4 -23 173 -23 163 0 170 1 170 20 0 19 -8 20 -173
23 l-173 2 3 -22z"/>
<path d="M290 375 c-15 -18 -10 -45 13 -59 34 -22 73 27 47 59 -16 19 -44 19
-60 0z"/>
<path d="M450 370 c-6 -4 -10 -16 -8 -26 3 -18 15 -19 173 -19 158 0 170 1
173 19 2 10 -2 22 -10 27 -16 11 -311 10 -328 -1z"/>
</g>
</svg>
