<?xml version="1.0" standalone="no"?>
<!DOCTYPE svg PUBLIC "-//W3C//DTD SVG 20010904//EN"
 "http://www.w3.org/TR/2001/REC-SVG-20010904/DTD/svg10.dtd">
<svg version="1.0" xmlns="http://www.w3.org/2000/svg"
 width="115.000000pt" height="98.000000pt" viewBox="0 0 115.000000 98.000000"
 preserveAspectRatio="xMidYMid meet">

<g transform="translate(0.000000,98.000000) scale(0.100000,-0.100000)"
fill="#000000" stroke="none">
<path d="M498 831 c-100 -33 -163 -90 -211 -191 l-31 -65 -4 -208 c-3 -161 -1
-211 9 -223 12 -14 41 -16 229 -12 208 3 217 4 273 30 168 78 245 279 177 463
-29 79 -123 171 -201 199 -78 27 -172 30 -241 7z m222 -97 c69 -32 95 -56 128
-119 53 -101 29 -254 -52 -322 -60 -51 -106 -67 -187 -67 -66 0 -83 4 -130 31
-128 72 -173 227 -105 360 65 128 214 179 346 117z"/>
<path d="M430 521 c0 -41 71 -55 111 -22 19 15 21 22 12 32 -10 10 -15 9 -28
-1 -14 -12 -41 -10 -77 5 -14 5 -18 2 -18 -14z"/>
<path d="M664 528 c-10 -16 33 -48 66 -48 36 0 80 34 64 50 -8 8 -18 8 -37 -1
-21 -9 -33 -9 -52 -1 -32 15 -32 15 -41 0z"/>
<path d="M524 379 c-17 -28 73 -59 128 -43 32 9 58 38 45 50 -3 4 -20 1 -36
-6 -30 -12 -80 -10 -112 4 -10 4 -20 2 -25 -5z"/>
</g>
</svg>
